<svg xmlns="http://www.w3.org/2000/svg" width="1664" height="258" viewBox="0 0 1664 258" fill="none"><g clip-path="url(#clip0_183_1368)"><path d="M36.0704 67.2706C36.0704 63.9654 34.7092 62.7016 31.9869 62.7988C25.2784 62.7988 18.4728 62.7988 11.7643 62.7988C7.87966 63.2915 4.04243 64.1044 0.291748 65.2291V19.4425C3.27832 17.4974 6.56228 16.0527 10.0142 15.1651C14.1433 14.3734 18.206 13.2683 22.1673 11.8598C27.8063 10.6933 33.4453 8.84629 39.0844 7.48532C44.7234 6.12436 51.6264 5.24949 57.946 4.18016C61.7513 4.16352 65.5397 3.67376 69.224 2.72204C73.0158 1.06944 76.6131 2.72199 79.9187 1.45824C87.3613 -0.110204 94.9951 -0.568821 102.572 0.0972826C110.253 0.0972826 118.031 0.0972826 125.712 0.0972826C128.823 0.0972826 131.448 2.33314 134.851 1.74986C137.946 1.4703 141.064 1.86833 143.99 2.91636C148.851 4.18011 153.712 3.79134 159.06 4.66625C165.977 5.76425 172.827 7.25719 179.574 9.1379C189.296 11.7626 198.047 15.1651 207.38 17.8871C209.908 18.6647 211.269 19.6368 211.172 22.2615C211.075 24.8863 211.172 25.2752 211.172 26.7334C211.172 57.0634 211.172 87.2962 211.172 117.626C211.057 120.263 210.798 122.892 210.394 125.5C210.394 127.833 210.394 130.75 209.13 132.402C207.866 134.055 209.811 137.944 206.797 139.791C206.311 139.791 206.797 141.929 206.797 144.068C201.45 138.43 199.213 131.43 192.213 127.736C192.213 129.195 192.213 130.264 192.213 130.944C194.904 135.255 197.028 139.895 198.533 144.748C200.164 151.174 199.859 157.938 197.658 164.191C197.074 166.329 194.547 167.885 192.797 169.537C186.155 175.147 178.131 178.873 169.56 180.328C156.321 181.72 142.998 182.142 129.698 181.592C127.396 181.326 125.119 180.87 122.892 180.231C120.461 180.231 117.934 180.814 115.989 178.675C102.724 176.457 89.7009 172.974 77.0992 168.274C76.6466 168.319 76.1906 168.319 75.738 168.274C68.6406 164.871 61.446 161.76 54.5431 158.552C45.4281 153.79 36.6566 148.398 28.2924 142.415C18.7179 135.26 10.207 126.783 3.01403 117.237C1.19183 115.024 0.225724 112.23 0.291748 109.363C0.291748 102.883 0.291748 96.1749 0.291748 89.2404C0.268355 86.8799 0.731019 84.5397 1.65096 82.3656C2.5709 80.1915 3.92839 78.2299 5.63906 76.6029C11.2364 71.0442 18.7527 67.8433 26.6396 67.6594C29.4591 67.0762 32.6676 67.2706 36.0704 67.2706ZM47.9318 53.8554C47.8218 54.6943 47.8218 55.5439 47.9318 56.3828C51.0404 62.1306 54.5492 67.653 58.4321 72.9089C60.0663 74.868 61.26 77.1555 61.9322 79.6164C62.0714 81.8596 61.6364 84.1012 60.6683 86.1296C58.1404 93.1288 56.8765 100.517 55.0292 107.613C53.1819 114.71 51.3346 121.515 49.6818 128.514C48.029 135.513 46.7651 140.763 45.3067 147.179C47.3994 148.661 49.5742 150.024 51.8208 151.262C62.2223 156.767 73.1293 161.259 84.391 164.677C91.7149 166.458 99.1546 167.725 106.655 168.468C114.628 169.246 122.6 168.468 130.573 168.468C136.343 168.504 141.895 166.269 146.031 162.246C150.61 157.719 153.957 152.098 155.754 145.915C156.921 141.929 157.698 137.749 158.962 133.861C159.735 132.03 160.133 130.063 160.133 128.076C160.133 126.09 159.735 124.123 158.962 122.292C157.212 118.793 155.657 115.293 151.865 114.224C155.268 111.113 158.573 108.391 161.587 105.28C163.221 103.919 164.323 102.026 164.699 99.9338C165.359 95.0604 166.532 90.2704 168.199 85.6437C169.074 82.0468 168.199 77.8666 169.852 75.2419C171.504 72.6172 169.852 70.3814 169.852 68.0484C169.901 66.6156 169.66 65.1876 169.142 63.8508C168.624 62.5141 167.84 61.2964 166.838 60.2714C164.796 58.1078 162.32 56.4004 159.572 55.2611C156.824 54.1219 153.866 53.5765 150.893 53.6609H47.9318V53.8554Z" fill="#1078E3"></path><path d="M274.465 67.2705H277.771C315.494 67.2705 353.12 67.2705 390.843 67.2705C393.702 67.1894 396.543 67.7397 399.165 68.8823C401.786 70.0249 404.124 71.7316 406.01 73.8809C407.901 76.006 409 78.7188 409.121 81.5607C409.255 89.8901 407.939 98.1794 405.232 106.058C404.279 108.944 403.564 111.902 403.093 114.904C402.884 117.486 401.743 119.904 399.885 121.709C398.215 124.19 395.996 126.253 393.399 127.737C390.802 129.22 387.898 130.085 384.912 130.264C386.333 131.772 387.896 133.139 389.579 134.347C392.322 136.232 394.467 138.864 395.76 141.931C397.052 144.998 397.438 148.371 396.871 151.65C395.121 157.289 392.885 162.927 391.135 168.565C389.658 174.26 386.746 179.481 382.676 183.73C380.439 186.025 377.762 187.845 374.805 189.081C371.848 190.317 368.672 190.944 365.467 190.924C331.828 190.924 298.091 190.924 264.062 190.924C262.798 186.549 265.229 182.758 266.298 178.772C268.34 170.704 270.479 162.635 272.715 154.664C274.951 146.692 277.382 139.11 279.424 131.333C281.465 123.556 283.215 117.918 284.771 111.113C285.635 106.822 286.905 102.624 288.563 98.5727C289.211 96.7896 289.39 94.8699 289.084 92.9976C288.777 91.1253 287.995 89.3629 286.813 87.8794C282.729 81.3662 278.451 74.9502 274.271 68.437C274.465 68.437 274.465 68.1454 274.465 67.2705ZM316.855 138.818C313.624 145.914 311.461 153.448 310.438 161.177H347.675C348.812 160.94 349.92 160.581 350.981 160.108C356.425 158.844 356.814 153.983 358.078 149.803C356.328 147.859 359.828 146.692 358.078 144.165C357.403 142.55 356.249 141.18 354.771 140.241C353.294 139.303 351.563 138.84 349.814 138.916C339.022 138.721 327.841 138.818 316.758 138.818H316.855ZM342.522 113.543C348.515 113.862 354.524 113.437 360.412 112.279C363.134 111.405 366.44 111.113 367.801 108.877C369.475 106.277 370.291 103.217 370.134 100.128C370.16 99.4217 370.035 98.7181 369.766 98.0642C369.498 97.4104 369.093 96.8213 368.579 96.3367C365.928 93.9206 362.441 92.6306 358.856 92.74C350.884 92.74 342.911 92.74 334.939 92.74C329.008 92.74 327.744 93.9065 326.675 100.031C326.157 103.023 325.443 105.979 324.536 108.877C324.536 109.946 323.077 110.821 324.536 111.891C325.331 112.741 326.396 113.29 327.55 113.446C331.925 113.543 336.689 113.543 342.522 113.543Z" fill="#1078E3"></path><path d="M789.756 192.479C790.923 188.008 791.798 184.216 792.867 180.425C795.006 172.357 797.242 164.385 799.478 156.316C801.714 148.248 803.853 140.763 805.992 132.986C808.131 125.209 809.492 119.473 811.437 112.863C812.604 108.585 813.673 104.308 815.229 100.225C815.872 98.4474 816.058 96.5361 815.769 94.6675C815.48 92.7989 814.726 91.033 813.576 89.532C809.395 83.0189 805.117 76.6029 800.937 70.0897C800.937 70.0897 800.937 70.0896 800.937 68.8259H804.34H917.412C920.138 68.7294 922.854 69.2075 925.383 70.2291C927.913 71.2508 930.199 72.7931 932.093 74.7558C934.371 77.1888 935.684 80.3682 935.787 83.6993C935.74 91.5644 934.595 99.3847 932.384 106.933C932.384 109.461 930.148 111.696 929.954 114.127C929.079 124.528 921.884 129 912.551 132.5C913.673 133.682 914.875 134.786 916.148 135.805C919.144 137.689 921.422 140.522 922.62 143.852C923.818 147.182 923.867 150.817 922.759 154.178C921.495 159.816 919.454 165.163 917.704 170.704C916.684 174.828 914.806 178.691 912.192 182.041C909.579 185.391 906.289 188.153 902.537 190.146C898.836 191.786 894.818 192.582 890.772 192.479H789.756ZM836.91 162.732H874.925C875.8 162.732 876.578 162.052 877.453 161.858C882.897 160.497 883.383 155.733 884.744 151.553C882.897 149.609 886.689 148.54 885.328 145.915C884.59 144.182 883.334 142.72 881.733 141.728C880.132 140.736 878.263 140.263 876.383 140.374H843.521C840.517 147.536 838.426 155.048 837.299 162.732H836.91ZM849.743 113.349C851.381 114.104 853.115 114.627 854.896 114.904C863.647 114.904 872.3 114.904 881.05 114.904C884.38 114.688 887.658 113.967 890.772 112.766C892.036 112.502 893.189 111.857 894.075 110.919C894.962 109.98 895.539 108.793 895.731 107.516C896.471 104.956 896.863 102.307 896.897 99.6422C895.929 97.9396 894.508 96.5386 892.792 95.5947C891.076 94.6509 889.131 94.2012 887.175 94.2955C877.453 93.8094 866.855 94.2955 857.132 94.2955C852.466 99.7393 853.535 106.641 850.132 113.543L849.743 113.349Z" fill="#1078E3"></path><path d="M1593.12 193.84H1566.48C1566.71 190.537 1567.33 187.274 1568.33 184.119C1570.2 178.61 1571.6 172.951 1572.51 167.204C1574.75 158.455 1577.37 149.706 1578.83 140.763C1581.85 138.527 1578.83 134.541 1581.26 132.014C1582.23 131.041 1577.18 126.861 1574.36 126.861H1558.71C1554.04 130.069 1554.33 134.93 1553.36 138.721C1551.12 147.956 1548.89 157.289 1546.94 166.718C1545 176.148 1542.57 182.758 1541.11 191.021C1541.01 191.889 1540.58 192.686 1539.91 193.247C1539.24 193.808 1538.38 194.09 1537.51 194.035H1512.72C1513.47 189.116 1514.64 184.27 1516.22 179.55C1517.97 175.176 1517.29 169.829 1520.21 166.329C1520.89 154.275 1526.14 143.193 1527.69 131.43C1530.8 126.667 1526.43 123.848 1524.77 120.445C1523.07 117.368 1521.15 114.413 1519.04 111.599C1518.93 110.728 1518.93 109.846 1519.04 108.974H1582.62C1584.64 108.824 1586.67 109.161 1588.53 109.956C1590.39 110.751 1592.03 111.981 1593.32 113.543C1594.75 111.847 1596.59 110.539 1598.66 109.74C1600.74 108.942 1602.98 108.678 1605.18 108.974C1619.08 108.974 1633.08 108.974 1646.99 108.974C1650.02 108.638 1653.1 109.108 1655.9 110.337C1658.7 111.565 1661.12 113.51 1662.93 115.974C1662.93 117.529 1662.15 119.571 1663.9 121.32C1664.12 121.74 1664.24 122.207 1664.24 122.681C1664.24 123.156 1664.12 123.623 1663.9 124.042C1662.06 128.611 1662.35 133.763 1660.5 138.235C1658.65 142.707 1659.33 147.956 1656.42 151.456C1656.42 159.33 1652.43 166.329 1651.75 174.204C1650.78 179.652 1649.38 185.015 1647.57 190.243C1646.99 192.868 1645.82 194.035 1643.19 194.035H1620.83C1620.42 189.472 1621.08 184.876 1622.78 180.619C1624.14 172.745 1627.05 165.357 1628.12 157.386C1629.26 150.812 1630.82 144.317 1632.79 137.943C1634.54 131.625 1634.64 131.722 1630.36 127.153H1610.92C1609.75 130.555 1608.39 134.249 1607.51 137.943C1604.11 151.65 1601.19 165.552 1597.01 179.064C1596.04 182.175 1596.04 185.577 1595.36 188.785C1594.79 190.542 1594.04 192.235 1593.12 193.84V193.84Z" fill="#1078E3"></path><path d="M464.247 189.563L473.095 156.705H450.733C448.011 156.705 446.941 157.872 446.261 160.399C444.025 168.857 441.205 177.217 438.969 185.674C438.288 188.202 437.414 189.563 434.691 189.563H409.121C410.579 184.605 412.232 179.842 413.399 175.564C415.538 167.301 417.482 158.941 420.108 150.775C422.733 142.61 423.802 135.999 426.719 128.903C427.284 127.248 427.393 125.472 427.033 123.762C426.674 122.051 425.86 120.469 424.677 119.182L415.732 105.766H496.526C498.438 105.697 500.344 106.025 502.123 106.731C503.901 107.437 505.514 108.504 506.857 109.866C508.201 111.228 509.247 112.855 509.929 114.643C510.611 116.43 510.914 118.34 510.818 120.251C510.697 126.164 509.58 132.014 507.512 137.555C506.151 141.929 505.179 146.401 503.429 150.775C501.679 155.15 501.679 159.427 500.221 163.607C497.588 171.044 495.572 178.685 494.193 186.452C494.049 187.303 493.588 188.067 492.902 188.59C492.216 189.114 491.357 189.357 490.498 189.271L464.247 189.563ZM452.192 138.818C460.164 138.818 467.359 138.818 474.553 138.818C476.401 138.818 478.248 138.818 478.831 136.777C479.985 134.244 480.582 131.492 480.581 128.708C480.581 126.958 478.442 125.306 477.373 123.848H459.678C459.146 123.794 458.61 123.848 458.099 124.007C457.589 124.165 457.116 124.424 456.708 124.768C456.3 125.113 455.965 125.536 455.724 126.012C455.482 126.489 455.339 127.009 455.303 127.542C454.525 131.139 453.358 134.638 452.192 138.818Z" fill="#1078E3"></path><path d="M945.801 107.516H1027.08C1028.93 107.503 1030.76 107.86 1032.46 108.566C1034.17 109.272 1035.72 110.313 1037.01 111.627C1038.31 112.941 1039.33 114.502 1040.01 116.217C1040.69 117.932 1041.02 119.767 1040.98 121.612C1040.73 127.525 1039.68 133.378 1037.87 139.013C1035.54 147.956 1032.43 156.608 1030.19 165.649C1028.35 173.037 1025.82 180.328 1024.46 187.91C1024.46 190.146 1022.61 191.021 1020.28 191.021H994.414L1003.16 158.163H980.511C978.08 158.163 977.108 159.524 976.524 161.566C974.483 168.954 971.858 176.148 970.496 183.633C970.112 184.965 969.625 186.265 969.038 187.521C968.993 188.061 968.835 188.586 968.575 189.061C968.315 189.537 967.958 189.953 967.528 190.282C967.097 190.612 966.603 190.848 966.076 190.975C965.549 191.102 965.002 191.118 964.469 191.021H939.676C941.718 179.939 945.899 169.44 948.329 158.455C949.577 152.844 951.201 147.322 953.19 141.929C954.702 138.059 955.968 134.098 956.982 130.069C957.32 128.666 957.366 127.208 957.115 125.786C956.864 124.364 956.322 123.009 955.524 121.806L945.801 107.516ZM982.358 140.277C990.428 140.277 997.817 140.277 1005.21 140.277C1006.06 140.377 1006.92 140.206 1007.67 139.787C1008.42 139.368 1009.02 138.723 1009.39 137.943C1010.41 135.585 1010.87 133.025 1010.75 130.458C1010.75 128.611 1008.71 126.861 1007.73 125.306H990.039C989.515 125.224 988.979 125.246 988.464 125.374C987.949 125.501 987.464 125.73 987.038 126.046C986.613 126.363 986.255 126.762 985.985 127.219C985.716 127.676 985.54 128.183 985.469 128.708C984.205 132.402 983.525 135.902 982.358 140.277Z" fill="#1078E3"></path><path d="M1107.97 158.164H1085.51C1084.54 158.052 1083.55 158.324 1082.77 158.923C1081.99 159.521 1081.48 160.399 1081.33 161.372C1079.58 168.76 1076.57 175.856 1075.3 183.439C1075 185.044 1074.51 186.61 1073.85 188.105C1073.69 188.937 1073.24 189.685 1072.58 190.219C1071.92 190.752 1071.1 191.036 1070.25 191.021H1044.1C1045.65 186.063 1047.21 181.3 1048.37 176.925C1050.32 168.857 1052.46 160.691 1054.89 152.72C1056.73 145.111 1059 137.613 1061.69 130.264C1062.26 128.61 1062.37 126.833 1062.01 125.123C1061.65 123.412 1060.83 121.83 1059.65 120.543C1056.64 116.46 1054.01 112.085 1050.8 107.225H1054.6C1080.26 107.225 1105.93 107.225 1131.7 107.225C1134.58 107.089 1137.44 107.911 1139.81 109.564C1142.18 111.216 1143.95 113.606 1144.82 116.362C1146.24 119.749 1146.48 123.516 1145.5 127.056C1144.04 130.653 1144.72 134.444 1142.88 137.943C1141.53 141.378 1140.49 144.924 1139.76 148.54C1135.78 161.372 1131.99 174.301 1129.26 187.424C1129.26 190.146 1127.13 190.924 1124.6 190.827H1099.22L1107.97 158.164ZM1112.44 125.403H1097.86C1091.44 125.403 1091.44 125.403 1089.5 131.528C1088.62 134.347 1088.14 137.166 1087.36 140.277C1095.33 140.277 1102.72 140.277 1110.11 140.277C1110.96 140.38 1111.83 140.197 1112.57 139.758C1113.31 139.318 1113.88 138.646 1114.19 137.846C1115.24 135.495 1115.74 132.935 1115.65 130.361C1115.36 128.611 1113.51 126.959 1112.44 125.403Z" fill="#1078E3"></path><path d="M711.976 171.87H757.283C759.714 179.453 767.005 184.411 768.756 192.382H677.267C678.142 189.271 679.114 186.16 679.892 182.661C682.031 174.592 683.878 166.426 686.212 158.455C688.545 150.484 690.879 141.443 693.601 133.083C694.639 130.594 694.898 127.85 694.342 125.211C693.787 122.573 692.443 120.165 690.49 118.307C688.246 115.1 686.386 111.642 684.948 108.002C690.004 106.836 738.519 106.447 778.381 107.322L773.908 124.82H725.296C722.683 129.421 721.562 134.72 722.088 139.985H758.936L754.561 156.219H715.671L711.976 171.87Z" fill="#1078E3"></path><path d="M1501.93 112.474L1508.15 118.696C1508.69 122.142 1508.69 125.651 1508.15 129.097C1507.08 132.111 1508.15 135.805 1505.43 138.818C1504.47 146.966 1502.87 155.027 1500.66 162.927C1499.38 169.966 1497.42 176.867 1494.83 183.536C1494.02 186.77 1492.12 189.624 1489.44 191.61C1486.76 193.596 1483.48 194.59 1480.15 194.424H1431.54C1428.22 194.166 1425.09 192.75 1422.71 190.422C1420.33 188.094 1418.84 185.002 1418.51 181.689C1418.91 176.762 1419.75 171.881 1421.04 167.107C1421.81 161.76 1423.27 156.705 1424.54 151.456C1426.48 141.442 1428.98 131.543 1432.02 121.806C1432.87 118.573 1434.79 115.728 1437.48 113.746C1440.17 111.764 1443.46 110.766 1446.8 110.919C1461.48 110.919 1475.97 110.919 1490.94 110.919C1494.63 111.181 1498.3 111.701 1501.93 112.474V112.474ZM1457.98 128.417C1452.24 130.264 1451.95 134.735 1451.56 138.138C1450.69 144.068 1448.65 149.512 1447.48 155.15C1445.96 160.161 1445.21 165.371 1445.24 170.607C1445.24 173.231 1446.7 174.495 1449.33 174.592H1465.76C1466.96 174.713 1468.17 174.586 1469.32 174.22C1470.47 173.854 1471.54 173.256 1472.45 172.464C1473.36 171.672 1474.1 170.702 1474.62 169.613C1475.14 168.525 1475.43 167.341 1475.48 166.135C1475.96 162.863 1476.61 159.618 1477.43 156.414C1478.2 153.4 1478.69 150.095 1479.76 146.693C1481.39 143.731 1482.01 140.316 1481.51 136.971C1484.62 132.986 1482.48 130.361 1479.08 128.028L1457.98 128.417Z" fill="#1078E3"></path><path d="M1202.28 125.695C1188.86 125.014 1176.52 125.695 1163.39 125.695C1162.81 119.473 1166.6 114.224 1166.5 108.197H1250.89C1245.64 116.363 1238.74 122.292 1233.49 129.583C1228.24 136.874 1221.63 143.582 1215.6 150.581L1198.1 171.871H1238.54C1238.13 178.993 1236.62 186.01 1234.07 192.674H1146.57C1152.6 184.411 1158.92 177.509 1164.85 170.315C1170.78 163.121 1177.39 155.733 1183.52 148.345C1189.64 140.957 1195.47 133.569 1202.28 125.695Z" fill="#1078E3"></path><path d="M168.588 205.894C160.81 213.671 154.198 221.157 146.615 227.475C138.953 234.239 130.867 240.505 122.406 246.237C117.818 249.468 113.404 252.941 109.183 256.639C108.459 257.419 107.47 257.901 106.409 257.991C105.348 258.081 104.292 257.772 103.447 257.125C97.7109 254.014 92.3635 250.126 86.9189 246.529C78.2805 240.406 70.0328 233.751 62.2238 226.601C56.5679 221.917 51.1797 216.918 46.0846 211.63C39.5051 205.207 33.5478 198.177 28.2924 190.632C22.8766 183.19 18.1267 175.285 14.0977 167.01C15.2644 167.01 16.3338 167.01 16.8199 167.787C22.8251 172.829 29.3424 177.228 36.2649 180.911C41.3205 183.827 45.9873 187.035 51.4319 189.466C58.821 192.771 66.3073 195.784 73.8908 198.409C79.2482 200.697 84.8165 202.455 90.5162 203.659C93.9191 203.659 97.322 205.408 100.239 205.894C105.028 206.194 109.799 206.746 114.531 207.547C125.231 209.293 136.108 209.685 146.906 208.714C153.111 208.866 159.294 207.945 165.185 205.992C166.31 205.808 167.454 205.776 168.588 205.894V205.894Z" fill="#1078E3"></path><path d="M1392.55 174.398L1403.05 192.09H1402.47H1336.84L1331.59 186.938C1331.59 183.147 1331.59 178.967 1331.59 174.787C1331.89 173.433 1332.28 172.102 1332.76 170.801C1335.77 158.941 1339.46 147.276 1343.55 135.707C1343.75 131.519 1344.81 127.417 1346.66 123.653C1348.27 118.174 1351.7 113.407 1356.38 110.141C1359.2 110.141 1362.6 110.141 1366.1 110.141C1373.4 110.141 1380.69 108.974 1387.88 108.78C1395.08 108.585 1402.37 108.78 1409.66 108.78H1415.3C1415.14 110.741 1414.85 112.69 1414.42 114.613C1413.91 116.392 1413.23 118.118 1412.38 119.765C1411.51 121.709 1413.16 124.139 1410.83 125.792C1408.49 127.444 1406.06 126.57 1403.73 126.667H1377.58C1375.31 126.442 1373.04 127.02 1371.15 128.299C1369.27 129.578 1367.9 131.478 1367.27 133.666C1364.35 146.012 1360.27 158.066 1356.77 170.315C1356.62 171.607 1356.62 172.911 1356.77 174.203L1392.55 174.398Z" fill="#1078E3"></path><path d="M560.598 106.058C554.667 127.639 548.736 148.54 543.194 169.926H580.334C582.668 173.815 579.751 176.925 579.167 180.231C578.349 183.749 577.343 187.221 576.153 190.632H508.096C508.68 186.355 510.624 182.369 511.499 178.189C512.957 170.995 515.583 163.996 517.235 156.705C518.499 151.359 520.249 146.109 521.805 140.763C523.984 134.381 525.834 127.892 527.347 121.32C528.948 117.154 530.057 112.815 530.652 108.391C530.652 106.544 532.888 105.766 535.222 105.766L560.598 106.058Z" fill="#1078E3"></path><path d="M628.363 170.218H665.989C667.836 174.203 665.017 177.217 664.336 180.522C663.656 183.827 662.586 187.23 661.614 190.729H593.557C596.473 179.064 599.487 167.69 603.279 156.414C605.904 147.373 608.335 138.235 611.349 129.292C613.53 122.957 615.189 116.455 616.307 109.849C616.317 109.303 616.441 108.765 616.672 108.27C616.903 107.776 617.236 107.335 617.649 106.977C618.061 106.62 618.545 106.353 619.067 106.195C619.59 106.036 620.14 105.99 620.682 106.058H646.641L628.363 170.218Z" fill="#1078E3"></path><path d="M1305.05 107.516C1297.07 135.999 1289.39 163.899 1281.52 192.188H1252.35C1253.23 189.174 1254.39 186.258 1254.98 183.147C1256.83 174.565 1259.17 166.094 1261.98 157.775C1264.02 151.164 1264.99 144.165 1267.13 137.555C1269.27 130.944 1269.95 126.861 1271.7 121.612C1272.87 118.307 1273.55 114.904 1274.42 111.891C1275.3 108.877 1275.78 107.808 1279.18 107.808L1305.05 107.516Z" fill="#1078E3"></path><path d="M1313.51 183.73C1308.35 192.771 1307.09 193.451 1298.73 187.619V181.592C1300.67 179.744 1302.52 176.925 1305.82 177.314C1309.13 177.703 1310.69 178.384 1313.51 183.73Z" fill="#1078E3"></path><path d="M84.002 140.277C85.0714 135.222 86.1408 130.555 86.8214 126.084C86.8214 124.042 88.1826 122.584 89.8354 122.487C91.4882 122.39 94.9883 120.348 98.1967 120.834C102.168 121.321 106.184 121.321 110.155 120.834C114.142 120.251 117.642 122.681 121.531 122.487C122.406 122.487 124.253 123.945 124.156 124.626C124.098 127.909 123.641 131.174 122.795 134.347C122.245 135.996 121.102 137.382 119.586 138.235C117.313 139.358 114.828 139.987 112.294 140.082C102.863 140.665 93.4327 140.277 84.002 140.277Z" fill="#1078E3"></path><path d="M95.0859 95.5592C95.0859 93.3233 95.0859 91.4764 95.9609 89.7266C96.8359 87.9767 97.1276 86.713 97.4193 85.1576C98.0027 81.658 98.6833 80.6858 101.697 80.6858H129.309C131.934 80.6858 133.003 82.0468 133.392 84.5743C133.616 85.9929 133.523 87.4434 133.12 88.8217C132.717 90.2 132.013 91.4718 131.059 92.5456C129.959 93.6127 128.645 94.4335 127.203 94.9531C125.761 95.4727 124.225 95.6793 122.698 95.5592H95.0859Z" fill="#1078E3"></path></g><defs><clipPath id="clip0_183_1368"><rect width="1664" height="258" fill="white"></rect></clipPath></defs></svg>