<svg xmlns="http://www.w3.org/2000/svg" width="202" height="99" viewBox="0 0 202 99" fill="none"><path d="M45.22 87.1892C45.2195 87.1042 45.2009 87.0202 45.1656 86.9428C45.1302 86.8655 45.0788 86.7965 45.0148 86.7405C44.9508 86.6845 44.8756 86.6427 44.7942 86.6179C44.7129 86.5931 44.6272 86.5859 44.5428 86.5967C44.329 86.5842 44.1183 86.6532 43.9534 86.7899C43.7885 86.9266 43.6815 87.1207 43.654 87.3331V90.4313H41.6055C41.1726 90.423 40.7404 90.4685 40.3188 90.5668V87.1808C40.3181 87.0965 40.2998 87.0133 40.2649 86.9366C40.23 86.86 40.1794 86.7914 40.1164 86.7356C40.0533 86.6797 39.9792 86.6377 39.8989 86.6123C39.8185 86.5869 39.7338 86.5787 39.6501 86.5882C39.4362 86.5757 39.2256 86.6448 39.0607 86.7815C38.8957 86.9181 38.7887 87.1122 38.7612 87.3247V95.0701C38.7612 95.468 39.0744 95.6288 39.4046 95.6288C39.6226 95.6481 39.8396 95.5821 40.0101 95.4448C40.1805 95.3075 40.2912 95.1095 40.3188 94.8924V91.9211H43.654V95.0701C43.654 95.468 43.9672 95.6288 44.3058 95.6288C44.5238 95.6481 44.7408 95.5821 44.9113 95.4448C45.0818 95.3075 45.1924 95.1095 45.22 94.8924V87.1892V87.1892ZM49.7657 93.1147C50.6122 93.1147 51.3063 92.7253 51.3063 91.7942V91.6926C51.3233 91.3546 51.2693 91.0168 51.1476 90.701C51.026 90.3852 50.8396 90.0984 50.6003 89.8591C50.361 89.6198 50.0742 89.4334 49.7584 89.3118C49.4426 89.1902 49.1048 89.1361 48.7668 89.1531C47.1416 89.1531 45.948 90.2451 45.948 92.4206C45.9153 92.821 45.9658 93.2239 46.0964 93.6038C46.2269 93.9838 46.4347 94.3326 46.7066 94.6284C46.9785 94.9242 47.3087 95.1605 47.6764 95.3224C48.044 95.4844 48.4412 95.5685 48.843 95.5695C49.2189 95.5945 49.5958 95.5395 49.9489 95.4081C50.302 95.2768 50.6233 95.0722 50.8915 94.8077C51.0129 94.6408 51.0755 94.4384 51.0693 94.2321C51.0776 94.1591 51.0705 94.0851 51.0484 94.015C51.0263 93.9449 50.9897 93.8803 50.941 93.8252C50.8924 93.7701 50.8327 93.7259 50.7658 93.6954C50.6989 93.6649 50.6264 93.6487 50.5529 93.648C49.9181 93.648 49.6133 94.139 48.8599 94.139C48.5574 94.1507 48.2606 94.0539 48.0231 93.8661C47.7857 93.6783 47.6231 93.4118 47.5648 93.1147H49.7657ZM48.7668 90.5752C49.034 90.5884 49.2855 90.7056 49.4674 90.9017C49.6493 91.0979 49.7473 91.3574 49.7403 91.6249H48.6822C48.3116 91.6235 47.9422 91.6661 47.5817 91.7518C47.7341 91.117 48.132 90.5752 48.7668 90.5752V90.5752ZM53.5665 86.8591C53.5697 86.7752 53.5545 86.6917 53.522 86.6143C53.4896 86.5369 53.4406 86.4676 53.3785 86.4111C53.3164 86.3547 53.2427 86.3125 53.1626 86.2875C53.0824 86.2625 52.9978 86.2554 52.9147 86.2666C52.4914 86.2666 52.0004 86.5628 52.0004 87.003V94.0628C52.0004 94.9939 52.3983 95.5949 53.4141 95.5949C53.5398 95.6143 53.6683 95.6052 53.79 95.5681C53.9117 95.531 54.0234 95.467 54.117 95.3808C54.2105 95.2946 54.2834 95.1884 54.3303 95.0701C54.3771 94.9518 54.3967 94.8245 54.3876 94.6977C54.3876 94.3591 54.2521 94.0966 53.8627 94.0966H53.7019C53.6003 94.0966 53.5665 94.0966 53.5665 93.9612V86.8591V86.8591ZM56.453 94.9601C56.6336 95.1581 56.8531 95.3167 57.0978 95.4259C57.3425 95.5351 57.6072 95.5927 57.8751 95.5949C59.5681 95.5949 60.2707 93.9697 60.2707 92.3698C60.2707 90.7699 59.4919 89.1785 57.799 89.1785C57.2848 89.1765 56.7878 89.3633 56.4022 89.7033V89.6356C56.4022 89.3224 56.0975 89.1785 55.7504 89.1785C55.4034 89.1785 54.8362 89.424 54.8362 89.9149V97.5334C54.8367 97.6152 54.8546 97.6959 54.8887 97.7701C54.9228 97.8444 54.9723 97.9106 55.034 97.9643C55.0956 98.0179 55.168 98.0578 55.2463 98.0813C55.3246 98.1048 55.407 98.1114 55.488 98.1006C55.7073 98.1197 55.9255 98.0526 56.0962 97.9135C56.2669 97.7744 56.3766 97.5743 56.4022 97.3557V94.9601H56.453ZM56.453 91.1762C56.7851 90.8831 57.2046 90.7075 57.6466 90.6768C58.3492 90.6768 58.7132 91.5233 58.7132 92.3698C58.7132 93.2163 58.3492 94.0628 57.6381 94.0628C57.4096 94.0466 57.1868 93.9843 56.9831 93.8796C56.7794 93.7748 56.5991 93.6298 56.453 93.4533V91.1424V91.1762ZM61.3458 95.0363C61.3458 95.4341 61.659 95.5949 61.9976 95.5949C62.2156 95.6142 62.4326 95.5483 62.6031 95.4109C62.7735 95.2736 62.8842 95.0756 62.9118 94.8585V90.516C62.9118 89.6271 62.4716 89.2631 61.6082 89.2631H61.3458C60.8971 89.2631 60.6262 89.7372 60.6262 90.152C60.6262 90.5668 60.7871 90.7614 61.1849 90.7614H61.2865C61.3373 90.7614 61.3458 90.7614 61.3458 90.8207V95.0532V95.0363ZM60.9987 87.4855C61.0073 87.7559 61.1191 88.0127 61.3112 88.2032C61.5033 88.3937 61.761 88.5034 62.0314 88.5098C62.2994 88.5032 62.5544 88.3926 62.7424 88.2015C62.9304 88.0103 63.0367 87.7536 63.0388 87.4855C63.0388 87.2183 62.9326 86.9621 62.7437 86.7732C62.5548 86.5843 62.2986 86.4782 62.0314 86.4782C61.7634 86.4803 61.5066 86.5866 61.3155 86.7746C61.1243 86.9625 61.0138 87.2175 61.0072 87.4855H60.9987ZM69.032 91.0746C69.0623 90.8278 69.0379 90.5774 68.9604 90.341C68.883 90.1047 68.7545 89.8884 68.584 89.7074C68.4135 89.5263 68.2052 89.3851 67.9739 89.2937C67.7426 89.2023 67.4941 89.163 67.2459 89.1785C66.8986 89.1892 66.5569 89.2696 66.2414 89.4151C65.9258 89.5605 65.6427 89.7679 65.409 90.025V89.7964C65.4122 89.7126 65.397 89.629 65.3645 89.5516C65.3321 89.4743 65.2831 89.4049 65.221 89.3485C65.1589 89.292 65.0852 89.2498 65.0051 89.2248C64.9249 89.1999 64.8403 89.1927 64.7572 89.2039C64.3339 89.2039 63.8429 89.5002 63.8429 89.9403V95.0617C63.8429 95.4595 64.1561 95.6203 64.4947 95.6203C64.7128 95.6396 64.9298 95.5736 65.1003 95.4363C65.2707 95.299 65.3814 95.101 65.409 94.8839V91.5656C65.8257 91.0991 66.3968 90.7985 67.0173 90.7191C67.322 90.7191 67.4744 90.863 67.4744 91.2016V95.0786C67.4744 95.4764 67.7792 95.6373 68.1178 95.6373C68.3358 95.6565 68.5528 95.5906 68.7233 95.4533C68.8937 95.316 69.0044 95.118 69.032 94.9008V91.117V91.0746ZM69.5229 96.3483C69.5229 97.745 70.9197 98.1006 72.3841 98.1006C74.3395 98.1006 75.2453 97.161 75.2453 95.9505C75.2453 94.74 74.4834 94.0966 72.9428 94.0966H71.6476C71.4699 94.0966 71.4106 93.9951 71.4106 93.885C71.4099 93.8361 71.4193 93.7875 71.4382 93.7423C71.4572 93.6972 71.4852 93.6564 71.5207 93.6226C71.7028 93.6497 71.8867 93.6638 72.0709 93.6649C73.6708 93.6649 74.6104 92.7253 74.6104 91.4471C74.6165 91.0715 74.5323 90.6999 74.3649 90.3636H74.5257C74.6179 90.3649 74.7094 90.3472 74.7945 90.3115C74.8795 90.2758 74.9562 90.2229 75.0198 90.1561C75.0834 90.0893 75.1325 90.0101 75.164 89.9235C75.1955 89.8368 75.2088 89.7446 75.2029 89.6525C75.2029 89.2462 75.059 88.806 74.5511 88.806C74.3302 88.8164 74.1147 88.8785 73.9221 88.9873C73.7295 89.0961 73.5652 89.2486 73.4422 89.4324C73.0343 89.2325 72.5843 89.1338 72.1301 89.1446C71.8035 89.1036 71.4718 89.1344 71.1584 89.235C70.8449 89.3355 70.5571 89.5033 70.3152 89.7266C70.0734 89.9499 69.8832 90.2234 69.758 90.5279C69.6329 90.8324 69.5758 91.1606 69.5907 91.4894C69.588 91.8006 69.6568 92.1082 69.7918 92.3885C69.9269 92.6688 70.1245 92.9144 70.3694 93.1062C70.0807 93.4052 69.9119 93.7999 69.8954 94.2152C69.8954 94.9601 70.5811 95.5611 71.6561 95.5611H72.8666C73.366 95.5611 73.6284 95.705 73.6284 95.942C73.6284 96.179 73.256 96.56 72.3333 96.56C71.6646 96.56 71.0297 96.4499 71.0297 96.1028C71.0301 96.0198 71.0131 95.9376 70.9797 95.8615C70.9462 95.7855 70.8972 95.7173 70.8357 95.6614C70.7743 95.6055 70.7018 95.5632 70.6229 95.5372C70.544 95.5112 70.4605 95.502 70.3779 95.5103C70.2638 95.4943 70.1477 95.5033 70.0374 95.5367C69.9272 95.57 69.8255 95.6268 69.7394 95.7033C69.6533 95.7798 69.5848 95.874 69.5386 95.9795C69.4925 96.085 69.4698 96.1993 69.4721 96.3145L69.5229 96.3483ZM71.2159 91.5402C71.2145 91.4175 71.2398 91.296 71.2901 91.184C71.3403 91.0721 71.4143 90.9724 71.5069 90.8919C71.5995 90.8113 71.7085 90.7519 71.8264 90.7177C71.9442 90.6835 72.0681 90.6753 72.1894 90.6937C72.3948 90.6917 72.5939 90.7644 72.7497 90.8984C72.9054 91.0323 73.0071 91.2183 73.0359 91.4217C73.0359 91.9465 72.5449 92.2005 72.0624 92.2005C71.5799 92.2005 71.1482 91.9635 71.1482 91.5148L71.2159 91.5402ZM79.7994 90.7614V95.0363C79.7994 95.4341 80.1126 95.5949 80.4512 95.5949C80.6692 95.6142 80.8863 95.5483 81.0567 95.4109C81.2272 95.2736 81.3378 95.0756 81.3654 94.8585V90.7614H82.1527C82.5844 90.7614 82.8722 90.2874 82.8722 89.8388C82.8722 89.3901 82.7198 89.2631 82.3728 89.2631H82.0511C81.8217 89.2659 81.5927 89.2828 81.3654 89.3139V88.1712C81.3571 88.1166 81.3615 88.0609 81.3784 88.0084C81.3953 87.9559 81.4242 87.908 81.4628 87.8686C81.5014 87.8292 81.5487 87.7993 81.6008 87.7813C81.653 87.7633 81.7086 87.7576 81.7633 87.7648C81.9749 87.7648 82.2204 87.8664 82.4151 87.8664C82.6098 87.8664 82.923 87.5363 82.923 87.0792C82.9416 86.9292 82.9069 86.7775 82.8249 86.6505C82.7428 86.5236 82.6187 86.4296 82.4743 86.3851C82.2001 86.3017 81.9145 86.2617 81.6278 86.2666C81.382 86.2516 81.1359 86.2904 80.9067 86.3804C80.6774 86.4703 80.4706 86.6092 80.3005 86.7873C80.1305 86.9654 80.0013 87.1785 79.9221 87.4117C79.8428 87.6448 79.8154 87.8925 79.8417 88.1373V89.2631C79.4016 89.2631 79.1815 89.7118 79.1815 90.1096C79.1815 90.5075 79.3338 90.7445 79.7148 90.7445L79.7994 90.7614ZM88.1882 94.9347V91.3371C88.1882 89.9996 87.2063 89.1785 85.6487 89.1785C84.9561 89.1742 84.2731 89.3398 83.6594 89.661C83.5512 89.7224 83.4608 89.8109 83.397 89.9177C83.3332 90.0245 83.2982 90.1461 83.2954 90.2705C83.2931 90.4746 83.3647 90.6727 83.4969 90.8283C83.6291 90.9838 83.8131 91.0864 84.015 91.117C84.4636 91.117 84.9207 90.7191 85.6064 90.7191C86.292 90.7191 86.6222 90.9561 86.6222 91.4386V91.6503C86.2543 91.6026 85.8841 91.5744 85.5133 91.5656C84.1758 91.5656 83.1007 92.1158 83.1007 93.6311C83.0823 93.8971 83.1207 94.164 83.2134 94.4141C83.306 94.6641 83.4509 94.8916 83.6382 95.0814C83.8256 95.2711 84.0512 95.4188 84.3 95.5147C84.5489 95.6105 84.8153 95.6523 85.0816 95.6373C85.6388 95.6361 86.1801 95.4517 86.6222 95.1124V95.2563C86.673 95.5188 86.9438 95.6373 87.2571 95.6373C87.7311 95.6373 88.1035 95.4002 88.1628 94.977L88.1882 94.9347ZM85.2509 94.0882C84.8615 94.0882 84.6583 93.8766 84.6583 93.5887C84.6583 93.3009 84.9123 93.0131 85.3948 93.0131H86.5799V93.6565C86.1698 93.9209 85.6961 94.07 85.2085 94.0882H85.2509ZM91.972 89.17C91.711 89.1752 91.4544 89.2378 91.2203 89.3534C90.9862 89.469 90.7804 89.6347 90.6176 89.8388V89.6187C90.6176 89.3139 90.296 89.17 89.9489 89.17C89.8417 89.1571 89.733 89.1662 89.6294 89.1967C89.5258 89.2272 89.4295 89.2784 89.3463 89.3473C89.2632 89.4162 89.1949 89.5013 89.1457 89.5975C89.0965 89.6936 89.0674 89.7987 89.0601 89.9065V95.0278C89.0601 95.4172 89.2971 95.5865 89.6696 95.5865C89.7802 95.6007 89.8926 95.5929 90.0002 95.5635C90.1079 95.5342 90.2086 95.4838 90.2967 95.4154C90.3848 95.3469 90.4586 95.2618 90.5136 95.1647C90.5687 95.0677 90.604 94.9608 90.6176 94.85V91.4217C90.7596 91.2178 90.9446 91.0477 91.1597 90.9233C91.3747 90.799 91.6145 90.7235 91.862 90.7022C92.1921 90.7022 92.3614 90.8884 92.6069 90.8884C92.8524 90.8884 93.1487 90.5414 93.1487 90.1096C93.1531 90.0038 93.1358 89.8981 93.098 89.7991C93.0601 89.7002 93.0025 89.61 92.9286 89.534C92.663 89.3068 92.3212 89.1888 91.972 89.2039V89.17ZM98.5578 91.2524C98.8746 90.9092 99.3107 90.7002 99.7767 90.6683C99.848 90.6585 99.9205 90.6653 99.9886 90.6882C100.057 90.7111 100.119 90.7495 100.17 90.8003C100.22 90.8512 100.259 90.9131 100.282 90.9812C100.305 91.0494 100.311 91.1219 100.302 91.1932V95.0278C100.302 95.4256 100.615 95.5865 100.953 95.5865C101.171 95.6057 101.388 95.5398 101.559 95.4025C101.729 95.2652 101.84 95.0672 101.868 94.85V91.0323C101.891 90.7962 101.865 90.5577 101.791 90.3323C101.716 90.107 101.595 89.8998 101.436 89.7242C101.276 89.5486 101.081 89.4085 100.864 89.313C100.647 89.2176 100.412 89.1688 100.175 89.17C99.8311 89.1812 99.4934 89.262 99.182 89.4075C98.8706 89.553 98.592 89.7602 98.3631 90.0165C98.2045 89.7399 97.971 89.5136 97.6894 89.3639C97.4079 89.2141 97.0897 89.1469 96.7717 89.17C96.4981 89.1626 96.2259 89.2105 95.9714 89.3109C95.7168 89.4113 95.4852 89.562 95.2903 89.7541V89.5933C95.2903 89.3139 95.0279 89.17 94.6893 89.17C94.1899 89.17 93.7243 89.4578 93.7243 89.9065V95.0278C93.7243 95.4256 94.0375 95.5865 94.3761 95.5865C94.5941 95.6057 94.8111 95.5398 94.9816 95.4025C95.1521 95.2652 95.2627 95.0672 95.2903 94.85V91.2524C95.606 90.9077 96.0428 90.6985 96.5093 90.6683C96.5805 90.6585 96.653 90.6653 96.7212 90.6882C96.7893 90.7111 96.8513 90.7495 96.9021 90.8003C96.9529 90.8512 96.9913 90.9131 97.0142 90.9812C97.0371 91.0494 97.0439 91.1219 97.0341 91.1932V95.0278C97.0341 95.4256 97.3473 95.5865 97.6859 95.5865C97.9039 95.6057 98.1209 95.5398 98.2914 95.4025C98.4619 95.2652 98.5725 95.0672 98.6001 94.85V91.2524H98.5578ZM106.354 93.0893C107.201 93.0893 107.886 92.6999 107.886 91.7688V91.6672C107.903 91.3292 107.849 90.9914 107.728 90.6756C107.606 90.3598 107.419 90.073 107.18 89.8337C106.941 89.5945 106.654 89.408 106.338 89.2864C106.022 89.1648 105.685 89.1107 105.347 89.1277C103.721 89.1277 102.519 90.2197 102.519 92.3952C102.487 92.7963 102.537 93.1999 102.668 93.5805C102.8 93.961 103.008 94.3102 103.281 94.6061C103.554 94.902 103.885 95.1381 104.254 95.2996C104.622 95.4611 105.02 95.5443 105.423 95.5441C105.799 95.5691 106.176 95.5141 106.529 95.3828C106.882 95.2514 107.203 95.0468 107.471 94.7823C107.59 94.6144 107.649 94.412 107.641 94.2067C107.649 94.1344 107.642 94.0611 107.62 93.9916C107.599 93.9221 107.563 93.8578 107.515 93.8029C107.468 93.7479 107.409 93.7036 107.343 93.6725C107.277 93.6415 107.206 93.6245 107.133 93.6226C106.498 93.6226 106.193 94.1136 105.44 94.1136C105.133 94.1216 104.833 94.0179 104.596 93.8218C104.36 93.6257 104.202 93.3504 104.153 93.047L106.354 93.0893ZM105.313 90.5752C105.58 90.5884 105.831 90.7056 106.013 90.9017C106.195 91.0979 106.293 91.3574 106.286 91.6249H105.203C104.835 91.6234 104.468 91.6661 104.111 91.7518C104.255 91.117 104.661 90.5752 105.296 90.5752H105.313ZM111.425 89.1446C111.164 89.1498 110.907 89.2124 110.673 89.328C110.439 89.4436 110.233 89.6093 110.07 89.8134V89.5933C110.07 89.2885 109.748 89.1446 109.401 89.1446C109.294 89.1318 109.185 89.1408 109.082 89.1713C108.978 89.2018 108.882 89.2531 108.799 89.322C108.716 89.3909 108.647 89.476 108.598 89.5721C108.549 89.6682 108.52 89.7733 108.513 89.8811V95.0024C108.513 95.3918 108.75 95.5611 109.122 95.5611C109.233 95.5753 109.345 95.5675 109.453 95.5381C109.56 95.5088 109.661 95.4584 109.749 95.39C109.837 95.3215 109.911 95.2364 109.966 95.1393C110.021 95.0423 110.057 94.9354 110.07 94.8246V91.4217C110.211 91.2189 110.395 91.0493 110.608 90.925C110.822 90.8007 111.06 90.7247 111.306 90.7022C111.645 90.7022 111.805 90.8884 112.059 90.8884C112.313 90.8884 112.593 90.5414 112.593 90.1096C112.599 90.0043 112.583 89.8989 112.547 89.7999C112.51 89.7008 112.454 89.6104 112.381 89.534C112.116 89.3068 111.774 89.1888 111.425 89.2039V89.1446ZM117.494 93.6311C117.494 91.6249 114.43 91.718 114.43 90.9646C114.43 90.7191 114.76 90.6429 115.107 90.6429C115.675 90.693 116.241 90.7749 116.8 90.8884C117.13 90.8884 117.342 90.5414 117.342 90.1689C117.356 90.0321 117.331 89.8941 117.27 89.771C117.208 89.648 117.113 89.5452 116.994 89.4748C116.407 89.266 115.789 89.1545 115.166 89.1446C113.871 89.1446 112.906 89.7626 112.906 90.9815C112.906 92.8608 115.97 93.0639 115.97 93.7157C115.97 93.9781 115.733 94.0628 115.344 94.0628C114.689 93.9791 114.043 93.8374 113.414 93.6395C113.033 93.6395 112.754 94.0543 112.754 94.486C112.751 94.6147 112.785 94.7414 112.851 94.852C112.917 94.9627 113.012 95.0528 113.126 95.1124C113.796 95.4064 114.519 95.5591 115.251 95.5611C116.664 95.5611 117.528 94.8924 117.528 93.6311H117.494ZM126.966 86.7914C126.966 86.3681 126.645 86.2327 126.289 86.2327C126.082 86.2309 125.882 86.3049 125.726 86.4405C125.57 86.5762 125.469 86.7642 125.443 86.9691V89.7287C125.05 89.3941 124.553 89.2056 124.037 89.1954C122.344 89.1954 121.616 90.8376 121.616 92.4544C121.616 94.0712 122.302 95.6119 124.012 95.6119C124.281 95.6098 124.547 95.5523 124.793 95.4431C125.039 95.3339 125.26 95.1752 125.443 94.977V95.0617C125.493 95.4003 125.942 95.6119 126.357 95.6119C126.772 95.6119 126.992 95.4764 126.992 95.1124V86.8422L126.966 86.7914ZM125.409 93.4533C125.262 93.6308 125.08 93.7764 124.875 93.8812C124.67 93.986 124.445 94.0478 124.215 94.0628C123.504 94.0628 123.14 93.2163 123.14 92.3698C123.14 91.5233 123.504 90.6091 124.207 90.6091C124.651 90.641 125.073 90.8163 125.409 91.1085V93.4194V93.4533ZM131.444 93.1147C132.291 93.1147 132.985 92.7253 132.985 91.7942V91.6926C133.002 91.3546 132.948 91.0168 132.826 90.701C132.705 90.3852 132.518 90.0984 132.279 89.8591C132.039 89.6198 131.753 89.4334 131.437 89.3118C131.121 89.1902 130.783 89.1361 130.445 89.1531C128.82 89.1531 127.618 90.2451 127.618 92.4206C127.585 92.8217 127.636 93.2253 127.767 93.6058C127.898 93.9864 128.107 94.3356 128.38 94.6315C128.652 94.9274 128.984 95.1635 129.352 95.325C129.721 95.4864 130.119 95.5697 130.522 95.5695C130.897 95.5945 131.274 95.5395 131.627 95.4081C131.981 95.2768 132.302 95.0722 132.57 94.8077C132.688 94.6398 132.748 94.4374 132.739 94.2321C132.748 94.1598 132.741 94.0865 132.719 94.017C132.698 93.9475 132.662 93.8832 132.614 93.8283C132.566 93.7733 132.507 93.7289 132.442 93.6979C132.376 93.6669 132.304 93.6499 132.231 93.648C131.597 93.648 131.292 94.139 130.538 94.139C130.231 94.147 129.931 94.0433 129.695 93.8472C129.458 93.6511 129.301 93.3758 129.252 93.0724L131.444 93.1147ZM130.454 90.5752C130.721 90.5884 130.972 90.7056 131.154 90.9017C131.336 91.0979 131.434 91.3574 131.427 91.6249H130.369C129.999 91.6235 129.629 91.6661 129.269 91.7518C129.413 91.117 129.819 90.5752 130.454 90.5752V90.5752ZM135.211 86.8252C135.216 86.7418 135.202 86.6584 135.17 86.581C135.139 86.5035 135.09 86.434 135.029 86.3774C134.968 86.3208 134.894 86.2785 134.815 86.2535C134.735 86.2284 134.651 86.2213 134.568 86.2327C134.136 86.2327 133.654 86.529 133.654 86.9691V94.0289C133.654 94.9601 134.051 95.5611 135.067 95.5611C135.193 95.5805 135.321 95.5713 135.443 95.5342C135.565 95.4972 135.677 95.4331 135.77 95.3469C135.864 95.2607 135.937 95.1545 135.983 95.0362C136.03 94.918 136.05 94.7907 136.041 94.6638C136.041 94.3252 135.905 94.0628 135.516 94.0628H135.355C135.253 94.0628 135.211 94.0628 135.211 93.9273V86.8252ZM137.04 95.0024C137.04 95.4002 137.353 95.5611 137.691 95.5611C137.908 95.5781 138.123 95.5111 138.291 95.374C138.46 95.2369 138.57 95.0402 138.597 94.8246V90.4821C138.597 89.5933 138.165 89.2293 137.302 89.2293H137.04C136.829 89.2587 136.637 89.3666 136.502 89.5313C136.367 89.696 136.299 89.9056 136.312 90.1181C136.312 90.4821 136.472 90.7276 136.879 90.7276H136.972C137.023 90.7276 137.04 90.7276 137.04 90.7868V95.0193V95.0024ZM136.692 87.4516C136.701 87.7206 136.812 87.9762 137.002 88.1665C137.192 88.3568 137.448 88.4674 137.717 88.4759C137.985 88.4693 138.24 88.3588 138.428 88.1676C138.616 87.9765 138.722 87.7197 138.724 87.4516C138.724 87.1845 138.618 86.9283 138.429 86.7393C138.24 86.5504 137.984 86.4443 137.717 86.4443C137.449 86.4464 137.192 86.5527 137.001 86.7407C136.81 86.9287 136.699 87.1836 136.692 87.4516V87.4516ZM140.925 89.5933C140.877 89.4545 140.785 89.3354 140.662 89.2543C140.54 89.1733 140.394 89.1347 140.248 89.1446C139.571 89.1446 139.173 89.5425 139.359 90.0673L140.967 94.6553C141.092 94.9343 141.297 95.1696 141.557 95.331C141.816 95.4924 142.118 95.5725 142.423 95.5611C142.728 95.5768 143.031 95.4962 143.287 95.3306C143.544 95.165 143.742 94.9228 143.854 94.6384L145.369 89.8134C145.505 89.3647 145.157 89.1446 144.734 89.1446C144.091 89.1446 143.795 89.3817 143.668 89.8049L142.474 94.0374C142.447 94.0401 142.421 94.0331 142.399 94.0175C142.377 94.0019 142.362 93.9789 142.356 93.9527L140.925 89.6187V89.5933ZM149.39 93.0639C150.236 93.0639 150.922 92.6745 150.922 91.7434V91.6418C150.939 91.3038 150.885 90.966 150.763 90.6502C150.642 90.3344 150.455 90.0476 150.216 89.8083C149.977 89.5691 149.69 89.3826 149.374 89.261C149.058 89.1394 148.721 89.0853 148.383 89.1023C146.757 89.1023 145.555 90.1943 145.555 92.3698C145.523 92.7709 145.573 93.1745 145.704 93.5551C145.835 93.9356 146.044 94.2848 146.317 94.5807C146.59 94.8766 146.921 95.1128 147.289 95.2742C147.658 95.4357 148.056 95.5189 148.459 95.5188C148.835 95.5437 149.212 95.4887 149.565 95.3574C149.918 95.226 150.239 95.0214 150.507 94.7569C150.626 94.589 150.685 94.3866 150.677 94.1813C150.685 94.109 150.678 94.0357 150.656 93.9662C150.635 93.8967 150.599 93.8324 150.551 93.7775C150.503 93.7225 150.445 93.6782 150.379 93.6471C150.313 93.6161 150.241 93.5991 150.169 93.5972C149.534 93.5972 149.229 94.0882 148.476 94.0882C148.168 94.0962 147.869 93.9926 147.632 93.7964C147.396 93.6003 147.238 93.325 147.189 93.0216L149.39 93.0639ZM148.374 90.5752C148.641 90.5884 148.893 90.7056 149.075 90.9017C149.257 91.0979 149.355 91.3574 149.348 91.6249H148.281C147.913 91.6234 147.547 91.6661 147.189 91.7518C147.333 91.117 147.731 90.5752 148.374 90.5752V90.5752ZM154.486 89.1446C154.225 89.1498 153.968 89.2124 153.734 89.328C153.5 89.4436 153.294 89.6093 153.131 89.8134V89.5933C153.131 89.2885 152.81 89.1446 152.454 89.1446C152.244 89.1307 152.038 89.2003 151.879 89.3383C151.721 89.4763 151.623 89.6714 151.608 89.8811V95.0024C151.608 95.3918 151.845 95.5611 152.217 95.5611C152.328 95.5753 152.44 95.5675 152.548 95.5381C152.656 95.5088 152.756 95.4584 152.844 95.39C152.933 95.3215 153.006 95.2364 153.061 95.1393C153.116 95.0423 153.152 94.9354 153.165 94.8246V91.4217C153.306 91.2189 153.49 91.0493 153.704 90.925C153.917 90.8007 154.155 90.7247 154.401 90.7022C154.74 90.7022 154.901 90.8884 155.155 90.8884C155.409 90.8884 155.688 90.5414 155.688 90.1096C155.694 90.0043 155.678 89.8989 155.642 89.7999C155.605 89.7008 155.549 89.6104 155.476 89.534C155.211 89.3068 154.869 89.1888 154.52 89.2039L154.486 89.1446ZM160.132 90.7276V95.0024C160.132 95.4002 160.445 95.5611 160.784 95.5611C161 95.5781 161.215 95.5111 161.384 95.374C161.553 95.2369 161.662 95.0402 161.69 94.8246V90.7276H162.477C162.917 90.7276 163.205 90.2535 163.205 89.8049C163.205 89.3563 163.052 89.2293 162.705 89.2293H162.384C162.151 89.2323 161.92 89.2493 161.69 89.2801V88.1373C161.683 88.0823 161.688 88.0265 161.706 87.974C161.724 87.9216 161.754 87.874 161.793 87.8348C161.833 87.7956 161.88 87.7659 161.933 87.7479C161.985 87.7299 162.041 87.7241 162.096 87.731C162.307 87.731 162.553 87.8326 162.739 87.8326C162.925 87.8326 163.256 87.5024 163.256 87.0453C163.274 86.8954 163.239 86.7436 163.157 86.6167C163.075 86.4898 162.951 86.3958 162.807 86.3512C162.519 86.2639 162.219 86.2239 161.918 86.2327C161.672 86.2177 161.426 86.2566 161.197 86.3465C160.968 86.4365 160.761 86.5753 160.591 86.7535C160.421 86.9316 160.292 87.1446 160.212 87.3778C160.133 87.611 160.106 87.8586 160.132 88.1034V89.2293C159.692 89.2293 159.472 89.6779 159.472 90.0758C159.472 90.4736 159.616 90.7107 160.005 90.7107L160.132 90.7276ZM166.667 89.1446C166.406 89.1498 166.149 89.2124 165.915 89.328C165.681 89.4436 165.475 89.6093 165.313 89.8134V89.5933C165.313 89.2885 164.991 89.1446 164.644 89.1446C164.43 89.1322 164.219 89.2012 164.054 89.3379C163.889 89.4745 163.782 89.6686 163.755 89.8811V95.0024C163.755 95.3918 163.992 95.5611 164.364 95.5611C164.475 95.5753 164.587 95.5675 164.695 95.5381C164.803 95.5088 164.904 95.4584 164.992 95.39C165.08 95.3215 165.153 95.2364 165.209 95.1393C165.264 95.0423 165.299 94.9354 165.313 94.8246V91.4217C165.454 91.2178 165.64 91.0477 165.855 90.9233C166.07 90.799 166.309 90.7235 166.557 90.7022C166.887 90.7022 167.056 90.8884 167.302 90.8884C167.547 90.8884 167.844 90.5414 167.844 90.1096C167.847 89.8981 167.772 89.6927 167.632 89.534C167.363 89.3077 167.018 89.19 166.667 89.2039V89.1446ZM171.746 93.0639C172.592 93.0639 173.287 92.6745 173.287 91.7434V91.6418C173.304 91.3038 173.249 90.966 173.128 90.6502C173.006 90.3344 172.82 90.0476 172.581 89.8083C172.341 89.5691 172.054 89.3826 171.739 89.261C171.423 89.1394 171.085 89.0853 170.747 89.1023C169.122 89.1023 167.928 90.1943 167.928 92.3698C167.896 92.7702 167.946 93.1731 168.077 93.5531C168.207 93.933 168.415 94.2819 168.687 94.5776C168.959 94.8734 169.289 95.1097 169.657 95.2717C170.024 95.4336 170.421 95.5178 170.823 95.5188C171.199 95.5437 171.576 95.4887 171.929 95.3574C172.282 95.226 172.604 95.0214 172.872 94.7569C172.993 94.59 173.056 94.3876 173.05 94.1813C173.058 94.1083 173.051 94.0343 173.029 93.9642C173.007 93.8941 172.97 93.8295 172.921 93.7744C172.873 93.7193 172.813 93.6751 172.746 93.6446C172.679 93.6141 172.607 93.5979 172.533 93.5972C171.898 93.5972 171.602 94.0882 170.84 94.0882C170.543 94.1042 170.25 94.0156 170.012 93.8377C169.774 93.6598 169.606 93.4039 169.537 93.1147L171.746 93.0639ZM170.713 90.5752C170.98 90.5884 171.232 90.7056 171.414 90.9017C171.596 91.0979 171.694 91.3574 171.687 91.6249H170.629C170.258 91.6235 169.889 91.6661 169.528 91.7518C169.68 91.117 170.078 90.5752 170.713 90.5752V90.5752ZM178.272 93.6311C178.272 91.6249 175.217 91.718 175.217 90.9646C175.217 90.7191 175.538 90.6429 175.885 90.6429C176.454 90.6942 177.019 90.7762 177.578 90.8884C177.9 90.8884 178.112 90.5414 178.112 90.1689C178.126 90.0321 178.101 89.8941 178.04 89.771C177.978 89.648 177.883 89.5452 177.765 89.4748C177.177 89.266 176.559 89.1545 175.936 89.1446C174.641 89.1446 173.676 89.7626 173.676 90.9815C173.676 92.8608 176.74 93.0639 176.74 93.7157C176.74 93.9781 176.503 94.0628 176.114 94.0628C175.462 93.9803 174.819 93.8386 174.192 93.6395C173.993 93.667 173.812 93.7705 173.688 93.9282C173.563 94.086 173.504 94.2859 173.524 94.486C173.521 94.6158 173.556 94.7435 173.623 94.8544C173.691 94.9653 173.788 95.0548 173.904 95.1124C174.574 95.4085 175.297 95.5613 176.029 95.5611C177.434 95.5611 178.298 94.8924 178.298 93.6311H178.272ZM184.096 91.0408C184.127 90.794 184.102 90.5435 184.025 90.3072C183.947 90.0709 183.819 89.8545 183.648 89.6735C183.478 89.4925 183.27 89.3512 183.038 89.2598C182.807 89.1684 182.558 89.1291 182.31 89.1446C181.963 89.1553 181.621 89.2358 181.306 89.3812C180.99 89.5266 180.707 89.734 180.473 89.9911V86.8506C180.477 86.7668 180.461 86.6832 180.429 86.6058C180.396 86.5285 180.347 86.4591 180.285 86.4027C180.223 86.3462 180.15 86.304 180.069 86.279C179.989 86.2541 179.905 86.2469 179.821 86.2581C179.398 86.2581 178.916 86.5544 178.916 86.9945V95.0278C178.916 95.4256 179.22 95.5865 179.559 95.5865C179.777 95.6057 179.994 95.5398 180.165 95.4025C180.335 95.2652 180.446 95.0672 180.473 94.85V91.5318C180.89 91.0652 181.461 90.7646 182.082 90.6853C182.386 90.6853 182.539 90.8292 182.539 91.1678V95.0447C182.539 95.4426 182.852 95.6034 183.182 95.6034C183.4 95.6227 183.617 95.5567 183.788 95.4194C183.958 95.2821 184.069 95.0841 184.096 94.867V91.0831V91.0408Z" fill="#3A773B"></path><path d="M84.4127 12.5705C84.4127 9.54004 82.2711 8.28723 79.7739 8.28723C76.735 8.28723 73.2559 10.4289 73.2559 13.5524V19.8927H72.8073C69.6837 19.8927 67.7283 23.2787 67.7283 26.3176C67.7283 28.637 68.888 30.6855 71.5629 30.6855H73.2559V52.195C73.2559 61.1171 77.7169 65.1295 85.4793 65.1295C90.6599 65.1295 92.8862 62.0991 92.8862 58.8824C92.8862 56.563 91.8196 54.4213 88.9584 54.4213H86.9099C85.0391 54.4213 84.3704 53.5748 84.3704 51.8395V30.6771H88.8314C92.4883 30.6771 94.8077 26.9356 94.8077 23.9051C94.8077 21.7635 93.648 19.8927 90.9731 19.8927H89.1193C87.5364 19.9192 85.9564 20.0379 84.3873 20.2482V12.5705H84.4127ZM101.63 61.1171C101.63 63.9698 103.865 65.1295 106.269 65.1295C109.571 65.1295 112.787 62.9879 112.787 59.8643V28.7809C112.787 22.4491 109.664 19.8588 103.476 19.8588H101.597C98.3884 19.8588 96.4245 23.2448 96.4245 26.1906C96.4245 28.7809 97.5842 30.567 100.437 30.567H101.156C101.512 30.567 101.597 30.6517 101.597 31.0072V61.1171H101.63ZM99.091 7.22064C99.1663 9.13772 99.9622 10.9558 101.32 12.3116C102.677 13.6675 104.496 14.4612 106.413 14.5344C108.337 14.5014 110.172 13.7184 111.527 12.3522C112.882 10.9861 113.65 9.14477 113.668 7.22064C113.671 6.27219 113.487 5.33244 113.126 4.45543C112.765 3.57842 112.234 2.78147 111.563 2.11042C110.893 1.43936 110.097 0.907447 109.22 0.545265C108.344 0.183083 107.404 -0.00221756 106.456 2.00253e-05C104.536 0.0192914 102.698 0.784236 101.332 2.13322C99.9655 3.4822 99.1772 5.30954 99.1333 7.22911L99.091 7.22064ZM130.589 60.55C134.339 64.0291 137.361 65.0957 140.747 65.0957C152.971 65.0957 157.88 53.4986 157.88 42.0794C157.88 30.6601 152.522 19.224 140.569 19.224C136.735 19.224 133.797 20.4768 130.572 22.974V22.5253C130.572 20.299 128.431 19.224 125.933 19.224C122.725 19.224 119.424 21.0101 119.424 24.4892V78.919C119.424 81.7801 121.65 82.9398 124.063 82.9398C127.364 82.9398 130.572 80.7982 130.572 77.6746V60.5838L130.589 60.55ZM130.589 33.5128C133.45 31.1934 136.752 29.9406 139.156 29.9406C144.158 29.9406 146.774 35.9169 146.774 42.0794C146.774 48.2419 144.192 54.3875 139.105 54.3875C136.608 54.3875 133.306 53.05 130.64 50.0195V33.5467L130.589 33.5128ZM177.146 67.5082C176.165 70.7164 174.649 72.2401 171.61 72.2401C169.206 72.2401 166.887 71.165 164.923 71.165C162.24 71.165 160.995 73.222 160.995 75.9816C160.995 80.5358 165.905 82.9483 171.077 82.9483C178.839 82.9483 184.105 79.7316 187.05 70.454L201.703 24.5484C202.863 20.9762 200.459 19.2832 197.335 19.2832C193.67 19.2832 191.173 20.7985 190.284 23.8374L181.049 54.5991L170.256 22.5676C169.452 20.2482 166.955 19.2663 164.331 19.2663C160.581 19.2663 157.99 21.5857 159.336 25.3357L170.755 58.1713C172.093 62.0059 174.141 64.3253 178.069 64.5116L177.18 67.542L177.146 67.5082Z" fill="#3A773B"></path><path d="M32.0568 64.3931C19.5033 64.3931 13.4847 54.5737 13.4847 40.3356C13.4847 25.6658 20.4514 13.9503 32.1669 13.9503C44.7204 13.9503 51.8733 24.7177 51.8733 38.8542C51.8733 53.524 43.747 64.3931 32.0315 64.3931H32.0568ZM32.1669 0.973492C11.4785 0.973492 0 19.6472 0 40.3356C0 60.6515 10.3357 77.3699 32.0738 77.3699C52.6352 77.3699 65.4173 59.6442 65.4173 38.8542C65.4173 18.4875 53.8118 0.973492 32.1838 0.973492H32.1669Z" fill="#3A773B"></path><path fill-rule="evenodd" clip-rule="evenodd" d="M31.9213 40.6319C31.7943 39.1082 29.1025 33.1573 27.3248 31.9722C27.6803 33.4705 28.6369 33.3351 28.6369 38.0077C27.0698 37.4799 25.4378 37.1695 23.7865 37.0851C23.1516 37.0851 21.4078 37.1697 20.8999 37.6099C22.655 37.5421 24.3974 37.9336 25.9548 38.7457C27.5121 39.5578 28.8306 40.7623 29.7797 42.2402C31.8705 45.6855 30.3468 48.5128 29.458 52.7283L27.8496 59.5003H37.432L36.1199 53.3293C35.9422 52.2628 35.7475 51.1115 35.6036 50.0449C35.3496 48.2334 34.6978 46.0325 35.8321 44.5173C36.0022 44.2937 36.2048 44.0969 36.4331 43.9332C37.2034 43.3407 39.4974 41.2583 40.1831 41.2583C40.8688 41.2583 41.7745 42.3333 44.1193 41.7831C43.8758 41.0582 43.5699 40.3558 43.2051 39.6838C44.0766 39.5979 44.9418 39.4565 45.7954 39.2606C46.6419 39.0913 47.6069 38.9643 48.4534 38.7696C47.9902 38.5611 47.4951 38.4323 46.9889 38.3887C44.4079 38.0722 41.7919 38.1953 39.252 38.7527C37.4997 39.1082 36.1199 39.887 36.1199 39.159C35.9998 36.087 36.7668 33.0454 38.3293 30.3977C38.5885 30.0757 38.8073 29.7232 38.9811 29.3481C36.3739 31.0919 33.8428 36.0693 32.6662 39.032L32.1583 40.2425C32.146 40.2689 32.1319 40.2943 32.116 40.3187L31.8959 40.6234L31.9213 40.6319Z" fill="#3A773B"></path><path fill-rule="evenodd" clip-rule="evenodd" d="M39.9207 37.6099C43.1712 37.6099 44.2632 33.2843 40.8434 33.2843C37.4235 33.2843 36.7463 37.6099 39.9207 37.6099Z" fill="#3A773B"></path><path fill-rule="evenodd" clip-rule="evenodd" d="M23.5241 48.7583C23.5241 49.2492 23.5665 50.4513 24.049 50.4513C25.0869 50.2618 26.0266 49.7171 26.707 48.9106C27.4299 48.0549 27.8338 46.9749 27.8497 45.8548C27.8497 45.3638 27.7651 45.6093 27.7228 45.0675C26.944 45.5924 25.9366 47.7425 25.2256 48.2165C24.9716 47.6832 25.8689 46.2019 26.2329 45.4231C26.4191 45.0337 26.4869 44.7628 26.6731 44.4157C25.7422 44.6843 24.9272 45.2553 24.357 46.0386C23.7867 46.822 23.4937 47.7729 23.5241 48.7413V48.7583Z" fill="#3A773B"></path><path fill-rule="evenodd" clip-rule="evenodd" d="M23.5242 21.6026C23.5242 23.7781 24.9971 25.8351 26.5377 25.9367C26.4615 25.014 24.9294 22.9062 25.2256 22.2629C25.7093 22.7441 26.1302 23.2845 26.4785 23.8712C26.707 24.1844 26.8424 24.4045 27.0795 24.7177L27.6974 25.5642C27.8288 24.9413 27.8293 24.2978 27.699 23.6746C27.5687 23.0514 27.3103 22.4621 26.9402 21.944C26.5701 21.4259 26.0965 20.9903 25.5492 20.6649C25.002 20.3395 24.3931 20.1313 23.7612 20.0535C23.6081 20.5653 23.5199 21.0943 23.4988 21.628L23.5242 21.6026Z" fill="#3A773B"></path><path fill-rule="evenodd" clip-rule="evenodd" d="M14.9915 35.2482C16.3205 37.229 20.3329 37.6014 21.5518 35.773L18.0135 35.4005C17.641 35.2651 17.7849 35.4682 17.641 35.1212C18.9302 34.8704 20.2387 34.7317 21.5518 34.7064C21.4587 34.3593 21.3994 34.3678 21.1455 34.1985C20.1785 33.5628 19.0071 33.316 17.8659 33.5075C16.7246 33.6991 15.6979 34.3147 14.9915 35.2312V35.2482Z" fill="#3A773B"></path><path fill-rule="evenodd" clip-rule="evenodd" d="M40.1832 48.2504C39.8785 48.1403 39.997 48.1826 39.8108 47.971C39.117 46.9307 38.3653 45.9302 37.5591 44.9744C37.5591 46.896 37.5591 47.6578 38.5156 48.7413C39.2645 49.6647 40.3234 50.2845 41.4953 50.4851C41.7421 49.8146 41.8319 49.0964 41.7577 48.3858C41.7513 47.4494 41.4054 46.5471 40.7842 45.8463C40.246 45.1458 39.4739 44.6621 38.6087 44.4834C39.0066 45.2368 40.1663 47.3361 40.1832 48.2842V48.2504Z" fill="#3A773B"></path><path fill-rule="evenodd" clip-rule="evenodd" d="M37.559 25.3949C38.0077 25.2341 38.6087 24.1844 38.8711 23.812L39.7853 22.4914C40.1324 22.1105 39.6499 22.2967 40.3186 22.246C40.0392 22.8216 39.8784 23.4903 39.5737 24.1252C39.2361 24.6956 38.9527 25.2965 38.7272 25.9198C39.8953 25.8182 40.8519 24.6839 41.2667 23.7781C41.5693 23.201 41.7414 22.5645 41.7706 21.9135C41.7999 21.2625 41.6856 20.6131 41.436 20.0112C40.285 20.1903 39.243 20.7944 38.5156 21.7042C37.6013 22.6438 37.4998 23.6427 37.4998 25.4203L37.559 25.3949Z" fill="#3A773B"></path><path fill-rule="evenodd" clip-rule="evenodd" d="M43.857 34.7064C45.1355 34.7341 46.4095 34.8672 47.6662 35.1043V35.3667C47.0398 35.3667 45.3383 35.7561 43.73 35.7561C44.5765 36.9919 48.5465 37.8892 50.4173 35.1043C48.5889 33.8768 47.2853 32.6579 44.4918 34.0461C44.0601 34.2578 43.9755 34.2154 43.84 34.7064H43.857Z" fill="#3A773B"></path><path fill-rule="evenodd" clip-rule="evenodd" d="M30.9985 32.3616C30.9985 35.5021 34.3845 35.1466 34.3845 32.3616C34.3845 29.5766 30.9985 29.2211 30.9985 32.3616Z" fill="#3A773B"></path><path fill-rule="evenodd" clip-rule="evenodd" d="M31.3967 24.3622C31.3299 24.7533 31.3435 25.1539 31.4366 25.5396C31.5297 25.9253 31.7005 26.2879 31.9384 26.6054C32.1501 26.8255 32.0146 27.1218 32.2432 26.6562C32.3278 26.4954 32.4887 24.5992 32.5733 24.2268H32.8357C32.8357 25.1664 33.0981 25.9198 33.0981 26.8509C34.6218 25.8351 34.0124 22.6184 32.5733 22.2629C31.9755 22.8258 31.5649 23.5585 31.3967 24.3622V24.3622Z" fill="#3A773B"></path><path fill-rule="evenodd" clip-rule="evenodd" d="M21.2893 28.6878C21.7041 30.457 22.7284 31.5744 24.6753 31.5744C25.1832 31.5744 24.7261 31.5744 25.0731 31.4474C24.7368 31.1241 24.3648 30.8401 23.9642 30.6009C23.7441 30.4316 23.6595 30.3808 23.4309 30.2115C23.05 29.9237 23.1008 30.1015 22.9738 29.6274L25.6318 30.6602C25.5296 30.2478 25.3346 29.8642 25.0618 29.5386C24.7889 29.2129 24.4454 28.9538 24.0574 28.7809C23.6287 28.5732 23.1622 28.4548 22.6864 28.433C22.2105 28.4112 21.7352 28.4863 21.2893 28.654V28.6878Z" fill="#3A773B"></path><path fill-rule="evenodd" clip-rule="evenodd" d="M39.7939 30.6601C40.1664 30.457 40.6404 30.2877 41.0637 30.093C41.4869 29.8983 42.0202 29.5512 42.4181 29.7375C42.0541 30.2284 40.6574 30.8718 40.1833 31.5744C42.1895 31.5744 43.9502 30.584 43.9926 28.6878C43.6067 28.5633 43.2099 28.4755 42.8075 28.4254C41.4023 28.4254 39.8955 29.3989 39.7939 30.6601Z" fill="#3A773B"></path><path fill-rule="evenodd" clip-rule="evenodd" d="M21.2893 41.8085C23.1262 42.2318 25.1917 41.6815 25.6234 39.8446C25.1692 39.9784 24.7273 40.1512 24.3028 40.361C23.8823 40.5712 23.4465 40.7494 22.9992 40.8943C23.2109 40.0478 24.506 39.7938 25.0985 38.922C23.6256 38.922 23.4055 38.9219 22.5591 39.6245C21.9358 40.2109 21.5049 40.9723 21.3232 41.8085H21.2893Z" fill="#3A773B"></path><path fill-rule="evenodd" clip-rule="evenodd" d="M24.3114 34.9858C24.3319 35.3537 24.472 35.7049 24.7104 35.986C24.9487 36.2672 25.2723 36.4628 25.6319 36.5433C26.2922 36.7465 27.4434 36.5433 27.4434 35.773C27.4434 34.5456 26.707 33.9361 25.4711 33.9361C25.1819 33.9416 24.9042 34.0505 24.6884 34.2431C24.4726 34.4356 24.3328 34.6991 24.2944 34.9858H24.3114Z" fill="#3A773B"></path><path fill-rule="evenodd" clip-rule="evenodd" d="M35.4597 29.8729C35.866 29.5682 35.6375 29.5343 36.12 29.2126V29.9999C36.6786 29.8475 36.4416 29.9999 36.5601 29.3819C36.649 29.0662 36.6311 28.73 36.5093 28.4254C36.1538 28.5608 36.1877 28.6878 35.8237 29.0518C35.4597 29.4158 35.2481 29.3989 35.4597 29.8983V29.8729Z" fill="#3A773B"></path><path fill-rule="evenodd" clip-rule="evenodd" d="M28.637 28.5608C28.7493 29.0356 28.8369 29.516 28.8994 29.9999C29.7459 29.7883 28.8994 29.9237 29.2972 29.0857C29.7713 29.4327 29.475 29.5174 29.949 29.8729C30.0421 29.6444 30.2453 29.7459 29.5258 28.9756C29.1618 28.5862 29.111 28.3831 28.637 28.5608V28.5608Z" fill="#3A773B"></path></svg>