<svg xmlns="http://www.w3.org/2000/svg" width="435.191" height="166" viewBox="0 0 435.191 166"><defs><style>.a{fill:#fff;opacity:0;}.b{fill:#212120;}.c{fill:#eb4057;}</style></defs><g transform="translate(-7 23.68)"><rect class="a" width="435" height="166" transform="translate(7 -23.68)"></rect><path class="b" d="M117.158,62.5l-1.025.281c-34.409,8.8-32.9-6.563-32.377-9.391h36.087c.253-1.016,1.511-8.295,1.511-8.3a54.051,54.051,0,0,0,.951-11.713,15.568,15.568,0,0,0-3.641-9.093,17.7,17.7,0,0,0-1.594-1.749,20.292,20.292,0,0,0-4.219-3.174,26.307,26.307,0,0,0-13.078-3.272c-8.85,0-16.1,3.181-21.167,9.043a32.481,32.481,0,0,0-6.824,14.01c-.078.32-.149.64-.221.967-.37,1.715-1.615,7.663-2.162,12.687-3.52,31.069,32.042,27.957,45.241,23.9Zm-31.1-20.979a4.488,4.488,0,0,1,.149-1c1.267-4.6,3.977-10.695,12.985-10.695,2.2,0,6.169.407,8.21,3.047,1.388,1.814,1.73,4.511,1,8.046l-.134.605Z" transform="translate(72.248 10.57)"></path><path class="b" d="M70.49,43.908A13.867,13.867,0,0,1,84.163,31.946,12.413,12.413,0,0,1,90.6,33.391l2.785-15.718a36.873,36.873,0,0,0-9.309-1.579A29.243,29.243,0,0,0,55.419,40.732l-6.8,38.485H64.232Z" transform="translate(48.375 10.57)"></path><path class="b" d="M144.078,23.376a24.173,24.173,0,0,0-8.641-5.57,27.372,27.372,0,0,0-10.58-1.732c-14.334.454-24.147,9.14-26.962,23.844a112,112,0,0,0-1.643,13.335c-.344,7.506,1.948,13.98,6.625,18.722a25.923,25.923,0,0,0,19.347,7.337c14.254-.45,24.05-9.147,26.863-23.844a122.157,122.157,0,0,0,1.641-13.292c.348-7.536-1.953-14.031-6.649-18.8m-7.856,18.992,0,.052c-.132,2.033-.655,7.136-1.2,10.022C132.7,64.7,124.762,64.956,122.15,65.04a11.558,11.558,0,0,1-8.526-3.194c-2.091-2.132-3.045-5.082-2.854-8.786.086-1.966.677-7.22,1.185-10.107,1.587-8.338,5.693-12.323,12.933-12.552a11.646,11.646,0,0,1,8.725,3.285c2.024,2.106,2.906,5.034,2.61,8.682" transform="translate(103.702 10.53)"></path><path class="b" d="M105.212,9.8a45.546,45.546,0,0,0-13.4-2.789A23.077,23.077,0,0,0,84.14,8.092,31.246,31.246,0,0,0,62.581,32.859l-8.9,50.225A15.959,15.959,0,0,1,37.894,96.828,16.378,16.378,0,0,1,21.616,78.07l.065-.4A16.352,16.352,0,0,1,37.874,63.973H51.285L53.936,49.01l-14.832,0A33.017,33.017,0,0,0,14.925,60.269a30.6,30.6,0,0,0-7.38,14.388,37.227,37.227,0,0,0,.469,14.905,26.931,26.931,0,0,0,12.079,17.087,33.209,33.209,0,0,0,6.818,3.179c7.869,2.655,18.242,2.472,25.741-1.077,9.021-4.268,15.435-13.368,17.063-23.706l1.233-6.976,2.5-14.1H87.9l2.653-14.961H76.1l2.264-12.788a15.66,15.66,0,0,1,1.821-5.151,15.014,15.014,0,0,1,15.3-7.35,14.588,14.588,0,0,1,5.832,2.24,11.1,11.1,0,0,1,.913.666Z" transform="translate(0 0)"></path><g transform="translate(278.373 35.125)"><path class="c" d="M137.3,64.936a10.785,10.785,0,0,1-4.8-9.428q0-.607.134-1.812h11.945a4.981,4.981,0,0,0,1.209,4.026,5.678,5.678,0,0,0,4.294,1.477,6.694,6.694,0,0,0,4.128-1.142,3.8,3.8,0,0,0,1.509-3.222,4.091,4.091,0,0,0-1.912-3.488,32.9,32.9,0,0,0-5.94-3.021,51.472,51.472,0,0,1-6.342-3.055,14.143,14.143,0,0,1-4.262-3.925,10.317,10.317,0,0,1-1.812-6.241,13.52,13.52,0,0,1,2.283-8.053,14.845,14.845,0,0,1,6.509-5.235,23.654,23.654,0,0,1,9.53-1.812,22.89,22.89,0,0,1,8.591,1.509A13.017,13.017,0,0,1,168.2,25.88a11.143,11.143,0,0,1,2.08,6.744,11.4,11.4,0,0,1-.067,1.475H158a3.685,3.685,0,0,0,.065-.8,3.913,3.913,0,0,0-1.306-3.053,5.193,5.193,0,0,0-3.592-1.176,6.218,6.218,0,0,0-3.927,1.176,3.821,3.821,0,0,0-1.509,3.187,4.082,4.082,0,0,0,1.879,3.388,35.116,35.116,0,0,0,5.838,3.189,61.642,61.642,0,0,1,6.476,3.356,14.554,14.554,0,0,1,4.329,4.126,10.765,10.765,0,0,1,1.812,6.342,13.036,13.036,0,0,1-2.214,7.449,14.571,14.571,0,0,1-6.375,5.133,23.844,23.844,0,0,1-9.733,1.844Q142.094,68.258,137.3,64.936Z" transform="translate(-132.499 -20.007)"></path><path class="c" d="M182.341,59.107H164.757l-4.294,8.321H148.451L173.82,20.317h13.288l8.723,47.111H183.684ZM181,50.384l-2.753-17.45-8.991,17.45Z" transform="translate(-113.957 -19.647)"></path><path class="c" d="M182.826,20.317l5.434,35.571,17.922-35.571h12.213L193.363,67.428H179l-8.39-47.111Z" transform="translate(-88.2 -19.647)"></path><path class="c" d="M209.252,29.377l-1.678,9.8h15.37L221.4,47.833H206.03L204.151,58.37h17.381l-1.611,9.058H191.064l8.321-47.111h28.859l-1.609,9.06Z" transform="translate(-64.426 -19.647)"></path></g></g></svg>