<svg xmlns="http://www.w3.org/2000/svg" width="1366" height="768" viewBox="0 0 300 50"><path fill="#FFD200" d="M0 0h134v50H0z"></path><path d="M24.4 29.1l6.9-17.2h6.5L26.9 39h-5.1L10.9 11.9h6.5l7 17.2zM58.7 39l-2.5-5.8H44.8L42.3 39h-6.4l11.7-27.1h5.8L65.1 39h-6.4zm-8.2-19l-3.4 7.9h6.8L50.5 20zM68.2 11.9h6V23l10.2-11.1h7.5l-10.7 12c.9 1.3 2.6 3.7 5.1 7.2 2.5 3.5 4.4 6.1 5.6 7.9h-7L77 28.3l-2.7 3V39h-6V11.9zM95.7 11.9h6V39h-6V11.9zM108.4 39V11.9h6v21.7h11.5V39h-17.5zM149.2 15.5c-1.3 0-2.4.3-3.3.8-.9.5-1.3 1.4-1.3 2.5s.4 1.9 1.3 2.5c.9.6 2.7 1.2 5.4 1.9 2.8.7 4.9 1.6 6.3 2.8 1.4 1.2 2.1 3 2.1 5.4 0 2.4-.9 4.3-2.7 5.7-1.8 1.5-4.1 2.2-7 2.2-4.2 0-8-1.5-11.3-4.4l2.9-3.4c2.7 2.4 5.6 3.6 8.5 3.6 1.5 0 2.6-.3 3.5-.9.9-.6 1.3-1.5 1.3-2.5s-.4-1.9-1.2-2.4c-.8-.6-2.2-1.1-4.2-1.6s-3.5-.9-4.5-1.3-1.9-.9-2.7-1.6c-1.6-1.2-2.4-3.1-2.4-5.6 0-2.5.9-4.4 2.7-5.8 1.8-1.4 4.1-2 6.8-2 1.7 0 3.4.3 5.1.9 1.7.6 3.2 1.4 4.4 2.4l-2.4 3.4c-.8-.7-1.9-1.3-3.3-1.8-1.3-.6-2.6-.8-4-.8zM184.5 11.9v4.3h-14.4v7.2h13v4.1h-13v7.2H185V39h-19.5V11.9h19zM194.6 32.8l-2.7 6.2H187l11.9-27.1h4.9L215.7 39h-4.9l-2.7-6.2h-13.5zm11.7-4.2l-4.9-11.1-4.9 11.2h9.8zM241.1 20.7c0 4.5-1.9 7.3-5.8 8.4l7.1 9.8h-5.8l-6.5-9.1h-6v9.1h-4.6v-27h10.1c4.1 0 7.1.7 8.9 2.1 1.7 1.4 2.6 3.6 2.6 6.7zm-6.1 3.8c.9-.8 1.4-2.1 1.4-3.9 0-1.8-.5-3-1.4-3.6s-2.7-1-5.1-1h-5.8v9.7h5.7c2.5 0 4.3-.4 5.2-1.2zM260 34.8c1.6 0 2.9-.3 4.1-.8 1.1-.5 2.3-1.4 3.6-2.5l2.9 3c-2.9 3.2-6.3 4.8-10.4 4.8-4.1 0-7.5-1.3-10.2-3.9-2.7-2.6-4-6-4-10s1.4-7.4 4.1-10.1c2.7-2.7 6.2-4 10.4-4s7.7 1.5 10.5 4.6l-2.9 3.2c-1.3-1.2-2.5-2.1-3.7-2.6-1.1-.5-2.5-.7-4-.7-2.7 0-5 .9-6.9 2.7-1.9 1.8-2.8 4-2.8 6.8 0 2.7.9 5 2.8 6.9 1.8 1.7 4 2.6 6.5 2.6zM276.2 39V11.9h4.6v11.7h13.4V11.9h4.6V39h-4.6V27.9h-13.4V39h-4.6z"></path></svg>