<svg xmlns="http://www.w3.org/2000/svg" xmlns:xlink="http://www.w3.org/1999/xlink" height="204.020503" viewBox="0 0 52.249694 21.694454" width="490.146817"><clipPath id="a"><path d="m595 0h.27344v841.89062h-.27344zm0 0"></path></clipPath><symbol id="b"></symbol><symbol id="c"></symbol><symbol id="d"></symbol><symbol id="e"></symbol><symbol id="f"></symbol><symbol id="g"></symbol><symbol id="h"></symbol><g transform="translate(-288.18366 561.34618)"><g clip-path="url(#a)" transform="matrix(.35277778 0 0 .35277778 .833713 .333172)"><path d="m595.27734 841.89062h564.09376v-841.89062h-564.09376zm0 0" fill="#fff"></path></g><use fill="#211e1e" height="100%" transform="matrix(.35277778 0 0 .35277778 -82.190722 -83.58815)" width="100%" x="275.68951" xlink:href="#c" y="670.25177"></use><use fill="#211e1e" height="100%" transform="matrix(.35277778 0 0 .35277778 -82.190722 -83.58815)" width="100%" x="234.1707" xlink:href="#b" y="683.25177"></use><use fill="#4c4a4c" height="100%" transform="matrix(.35277778 0 0 .35277778 -155.9073 -116.75329)" width="100%" x="164.61571" xlink:href="#d" y="442.90091"></use><use fill="#26429e" height="100%" transform="matrix(.35277778 0 0 .35277778 -155.9073 -116.75329)" width="100%" x="417.75229" xlink:href="#d" y="445.9014"></use><use fill="#4c4a4c" height="100%" transform="matrix(.35277778 0 0 .35277778 -155.9073 -116.75329)" width="100%" x="556.6123" xlink:href="#e" y="476.9014"></use><use fill="#26429e" height="100%" transform="matrix(.35277778 0 0 .35277778 -155.9073 -116.75329)" width="100%" x="462.56329" xlink:href="#d" y="507.9014"></use><use fill="#4c4a4c" height="100%" transform="matrix(.35277778 0 0 .35277778 -155.9073 -116.75329)" width="100%" x="423.24231" xlink:href="#d" y="551.90143"></use><use fill="#4c4a4c" height="100%" transform="matrix(.35277778 0 0 .35277778 -155.9073 -116.75329)" width="100%" x="418.25229" xlink:href="#d" y="582.90143"></use><use fill="#4c4a4c" height="100%" transform="matrix(.35277778 0 0 .35277778 -155.9073 -116.75329)" width="100%" x="477.1933" xlink:href="#e" y="613.90143"></use><use fill="#232830" height="100%" transform="matrix(.35277778 0 0 .35277778 -232.63014 -148.20837)" width="100%" x="264.19571" xlink:href="#f" y="64.519897"></use><use fill="#512685" height="100%" transform="matrix(.35277777 0 0 .35277777 29.16801 -302.46079)" width="100%" x="442.27939" xlink:href="#g" y="578.77972"></use><use height="100%" transform="matrix(.35277778 0 0 .35277778 166.86316 -419.38822)" width="100%" x="211.22369" xlink:href="#h" y="218.392"></use><path d="m288.31595-543.51162h51.98511v-11.66096h-51.98511zm0 0" fill="#fff"></path><path d="m288.68802-543.88644h51.24234v-10.90993h-51.24234zm0 0" fill="#2b61ab"></path><g fill-rule="evenodd"><path d="m293.30307-546.61082h1.27744v-2.63895l2.07808-2.80982h-1.36288l-1.23886 1.72393-1.12723-1.72393h-1.55305l1.9265 2.86357zm0 0" fill="#fff"></path><path d="m297.21256-546.61082h3.34725v-1.14515h-2.10013v-1.07901h1.77354v-1.11621h-1.77354v-.9853h2.06982v-1.1231h-3.31694zm0 0" fill="#fff"></path><path d="m301.75733-548.14871.10611 1.45383c.27009.0854.52227.14883.76067.1943.23703.0441.46027.0675.66835.0675.61874-.011 1.09968-.17914 1.44281-.50436.34313-.32797.51676-.75103.52228-1.27331-.007-.42443-.13229-.76343-.37621-1.01699-.24391-.25218-.56499-.48369-.96325-.69315l-.63252-.35278c-.1254-.0703-.2191-.14607-.27974-.23013-.062-.0827-.0937-.17088-.0937-.26321.003-.13642.0537-.24253.15709-.32108.10197-.0772.24529-.11713.42995-.11851.14607 0 .33348.04.56086.12264.22738.0827.48369.2136.7717.39412v-1.27744c-.25493-.0896-.49609-.15709-.72209-.20395-.22462-.0496-.43959-.073-.64079-.073-.54019.008-.966.15158-1.27882.42994-.31281.27699-.47128.6339-.47818 1.07074-.001.32246.0841.61047.25494.86679.17088.25631.4327.48506.78686.68764l.36518.20808c.27699.15434.4961.28939.65457.40652.15985.11851.23978.26734.24391.44786-.001.15434-.0675.27975-.19568.37896-.12816.0978-.30868.15021-.54295.15297-.25631-.001-.50574-.0524-.75103-.15021-.24253-.0992-.50022-.23289-.77032-.40376" fill="#fff"></path><path d="m326.21475-546.61082h.91364v-3.46301l3.47817 3.64077h.0992v-5.62653h-.92052v3.46301l-3.47128-3.64077h-.0992zm0 0" fill="#fff"></path><path d="m332.42419-546.61082h.93569v-2.54662l2.4281 2.54662h1.21819l-2.7175-2.83187 2.45842-2.6169h-1.09553l-2.29168 2.43224v-2.43224h-.93569zm0 0" fill="#fff"></path><path d="m318.3558-561.21389-11.81254 21.42987-4.05419-4.10242h2.79466zm0 0" fill="#fff"></path><path d="m316.87854-558.91257-10.41521 18.51808-3.07854-3.11575h2.08497zm0 0" fill="#d71c23"></path><path d="m321.76231-548.3568.89021-2.0326.87506 2.0326zm-.79237 1.74735.44097-.97013h2.45153l.43408.97013h.99632l-2.55626-5.6279h-.0772l-2.64721 5.6279zm0 0" fill="#fff"></path><path d="m316.77657-549.79547v-1.54065h.51814c.35002-.003.61185.0551.7841.17088.17363.11713.25907.30455.25907.56086-.001.24805-.0896.44511-.2632.58842-.17225.14332-.4203.21636-.74276.22049zm.001 2.42259-.001-1.7005h.66283c.33211.001.58291.0758.75379.21911.17226.14469.25769.34864.25907.61323-.001.27836-.0896.49333-.2632.64354-.17364.14883-.41755.22462-.73863.226zm-.91364.76343v-5.45014h1.60817c.43959.001.98254.0717 1.34359.35554.29903.23426.44924.57739.44924 1.02939.001.27423-.0689.5085-.20947.70142-.13918.19431-.35415.34589-.64216.45338.31006.0799.54984.23426.71796.46164s.25355.51401.25493.85576c0 .5333-.17087.93294-.514 1.19752-.34314.2632-.85852.39549-1.54754.39412l-1.45934.001zm0 0" fill="#fff"></path></g></g></svg>